<svg width="93" height="17" viewBox="0 0 93 17" fill="none" xmlns="http://www.w3.org/2000/svg">
<path d="M8.5 0L10.8382 5.28173L16.584 5.87336L12.2833 9.72927L13.4962 15.3766L8.5 12.478L3.50383 15.3766L4.7167 9.72927L0.416019 5.87336L6.16179 5.28173L8.5 0Z" fill="#FFC107"/>
<path d="M46.5 0L48.8382 5.28173L54.584 5.87336L50.2833 9.72927L51.4962 15.3766L46.5 12.478L41.5038 15.3766L42.7167 9.72927L38.416 5.87336L44.1618 5.28173L46.5 0Z" fill="#FFC107"/>
<path d="M27.5 0L29.8382 5.28173L35.584 5.87336L31.2833 9.72927L32.4962 15.3766L27.5 12.478L22.5038 15.3766L23.7167 9.72927L19.416 5.87336L25.1618 5.28173L27.5 0Z" fill="#FFC107"/>
<path d="M65.5 0L67.8382 5.28173L73.584 5.87336L69.2833 9.72927L70.4962 15.3766L65.5 12.478L60.5038 15.3766L61.7167 9.72927L57.416 5.87336L63.1618 5.28173L65.5 0Z" fill="#FFC107"/>
<path d="M84.5 0L86.8382 5.28173L92.584 5.87336L88.2833 9.72927L89.4962 15.3766L84.5 12.478L79.5038 15.3766L80.7167 9.72927L76.416 5.87336L82.1618 5.28173L84.5 0Z" fill="#C4C4C4"/>
</svg>
